<svg xmlns="http://www.w3.org/2000/svg" data-name="Layer 1" viewBox="0 0 128 160" x="0px" y="0px"><title>miscellaneous 199_expandline</title><path d="M64,0a64,64,0,1,0,64,64A64.07238,64.07238,0,0,0,64,0ZM29.9897,14.6074c.2417,1.0498.4161,2.4092.5,3.0703.0674.5274.128.9981.19,1.3633a10.55633,10.55633,0,0,1,.0058,5.0791c-.5908,1.7051-1.9306,2.9444-4.4834,4.1455-.4208.1992-.8398.3916-1.2558.5821-2.7954,1.2832-5.686,2.6103-8.0659,5.4316-3.3296,3.9473-4.9991,4.4521-5.6836,4.4707-.1431-.0049-.4776-.0176-.937-.6504a1.96425,1.96425,0,0,0-.2412-.2695A60.40048,60.40048,0,0,1,29.9897,14.6074ZM4.59082,55.6738c2.23047.0957,8.417.6914,8.64018,4.3477a45.65278,45.65278,0,0,0,.1098,8.7197c.4761,4.168,3.4634,6.7285,6.0996,8.9883,2.3931,2.0508,4.46,3.8223,4.6548,6.4414a11.02493,11.02493,0,0,1-.978,4.3721,23.77576,23.77576,0,0,0-.9854,3.1884l-.0522.2461a14.22,14.22,0,0,0-.3897,5.6739c.4004,2.2216.1421,4.2031-.6582,5.0478a2.80338,2.80338,0,0,1-2.31.6026A59.68534,59.68534,0,0,1,4.59082,55.6738ZM46.6509,121.4326c5.0322-2.3564,15.2617-5.4521,24.5766,2.1162a59.37072,59.37072,0,0,1-24.5766-2.1162Zm29.6177,1.3018c-14.4375-14.7364-32.1192-4.6758-34.6768-3.0918a60.17,60.17,0,0,1-19.6006-12.8565,5.79923,5.79923,0,0,0,1.9443-1.3359c2.4449-2.5811,1.9971-6.8096,1.691-8.5078a10.85747,10.85747,0,0,1,.3667-4.1377l.0522-.2481a20.589,20.589,0,0,1,.8325-2.6513,14.36546,14.36546,0,0,0,1.2066-6.0323c-.3184-4.2763-3.3589-6.8818-6.041-9.1806-2.3775-2.0381-4.4307-3.7979-4.7281-6.4043a41.78008,41.78008,0,0,1-.0874-8.0703,2.01243,2.01243,0,0,0,.0054-.2237c-.1504-4.788-4.6094-7.8476-11.96289-8.2832A59.41142,59.41142,0,0,1,8.29492,41.751a4.86187,4.86187,0,0,0,2.75688.9961c.0625.0019.125.0039.1875.0039,3.3003,0,6.3764-3.1387,8.6987-5.8926,1.8032-2.1387,4.062-3.1748,6.6772-4.375.4287-.1973.8614-.3955,1.2935-.5996,2.2158-1.043,5.3066-2.8477,6.5552-6.4502a14.05055,14.05055,0,0,0,.1591-7.0625c-.0542-.3203-.1064-.7344-.165-1.1982a22.57315,22.57315,0,0,0-.9756-4.8028A59.56143,59.56143,0,0,1,56.731,4.4561a10.64744,10.64744,0,0,1,.0996,1.8769l-.0015.3467c.0122,1.9219-.0454,3.2363-.9248,3.9609a9.29333,9.29333,0,0,1-2.5801,1.2744c-.5415.2061-1.0805.4121-1.5967.6485a23.0301,23.0301,0,0,0-6.9995,4.4179c-1.5952,1.629-2.0561,3.2364-1.3706,4.7774a2.00037,2.00037,0,0,0,1.8281,1.1875,2.00233,2.00233,0,0,0,1.9107-2.5899,3.8854,3.8854,0,0,1,.4907-.5771,19.72807,19.72807,0,0,1,5.8067-3.5791c.4365-.2002.893-.3721,1.351-.5459a12.57321,12.57321,0,0,0,3.7056-1.9287c2.4111-1.9863,2.3926-4.9258,2.3789-7.0693l.0015-.2911a14.86822,14.86822,0,0,0-.1172-2.2714C61.8018,4.0352,62.897,4,64,4A59.796,59.796,0,0,1,80.6299,6.3623c-1.1665,2.4395-.6441,5.5527-.3096,7.5147l.0796.4697c.148.8994.5996,3.6367-.0264,4.4199-.0366.0459-.1347.1689-.5849.1953-.0425.0029-.0845.0029-.1265.0029-1.6225-.121-12.6113-.7314-13.4248,5.71l.0073.001a3.28148,3.28148,0,0,0-.041.3672,8.65751,8.65751,0,0,1-.7544,3.4668,11.14832,11.14832,0,0,1,3.4356-.5489c.3217,0,.6328.0313.9453.0567a16.25384,16.25384,0,0,0,.3662-2.7383l.0039-.0615.0059-.041c.2377-1.8897,5.5932-2.5079,9.208-2.2188.0478.0039.0976.0068.146.0068.1655.001.33-.0009.4795-.0107a4.5979,4.5979,0,0,0,3.4584-1.6904c1.7378-2.1729,1.1812-5.5498.8482-7.5703l-.083-.4883c-.4942-2.9024-.5742-4.6748.3198-5.5674a60.28081,60.28081,0,0,1,36.8003,38.8408c-.8604.1934-1.6841.4317-2.477.6846-1.9151.6084-3.5689,1.1348-5.6334.6933a7.66853,7.66853,0,0,1-2.2739-1.1884,8.99306,8.99306,0,0,0-4.4458-1.8428,5.99863,5.99863,0,0,0-6.1948,7.3115,8.78793,8.78793,0,0,0,.939,2.1963,6.25311,6.25311,0,0,1,.6596,1.4522c-.0849.0566-.4121.1767-1.6196.0576a7.7376,7.7376,0,0,1-1.6074-.4434,7.51994,7.51994,0,0,0-4.3613-.5312,5.1813,5.1813,0,0,0-3.564,2.8779,6.91431,6.91431,0,0,0,.2305,5.8564c1.5996,3.1944,3.9057,4.1377,5.9404,4.9698a12.92257,12.92257,0,0,1,2.7485,1.3896,1.18277,1.18277,0,0,1,.3916.3799c.0484.4287-1.0078,1.7148-1.459,2.2646-.3422.4161-.6963.8477-.9912,1.2764-.5654.8223-1.1943,1.6162-1.8598,2.457a23.48089,23.48089,0,0,0-4.0474,6.4776,24.03244,24.03244,0,0,0-1.1436,6.4463,26.77978,26.77978,0,0,1-.5976,4.375,9.86784,9.86784,0,0,1-2.19,3.6455,32.23689,32.23689,0,0,1-6.1928,5.4492c-1.4663,1.0537-3.4932,2.0225-4.8213.6582a13.88221,13.88221,0,0,1-3.2788-6.8594,21.93926,21.93926,0,0,1-.3404-3.8056,20.01962,20.01962,0,0,0-.7543-5.711,13.16365,13.16365,0,0,0-.8824-1.9717,4.19008,4.19008,0,0,1-.7329-2.1816,11.06166,11.06166,0,0,0-.3721-4.4697,5.97014,5.97014,0,0,1-3.5205,1.1484h-.3261a6.882,6.882,0,0,1,.2383,2.9238,7.646,7.646,0,0,0,1.163,4.4219,9.85377,9.85377,0,0,1,.6324,1.377,16.80981,16.80981,0,0,1,.5571,4.5967,25.18574,25.18574,0,0,0,.4282,4.5166,17.763,17.763,0,0,0,4.3228,8.8056,6.00354,6.00354,0,0,0,4.4057,1.8819,9.81755,9.81755,0,0,0,5.6148-2.0831,35.7783,35.7783,0,0,0,6.9629-6.1738,13.59639,13.59639,0,0,0,2.9638-5.1855,30.202,30.202,0,0,0,.7066-5.0303,20.69933,20.69933,0,0,1,.915-5.4033,20.165,20.165,0,0,1,3.4258-5.3653c.6777-.8564,1.3779-1.7412,2.0185-2.6728.2178-.3164.4976-.6524.7876-1.0059,1.1646-1.4179,2.6138-3.1826,2.334-5.3222a4.53189,4.53189,0,0,0-2.0258-3.1094,16.45932,16.45932,0,0,0-3.5665-1.8428c-1.7768-.7265-2.9511-1.207-3.8774-3.0576a2.97578,2.97578,0,0,1-.1797-2.3828,1.18377,1.18377,0,0,1,.8809-.6748,4.44582,4.44582,0,0,1,2.1074.4248,10.89836,10.89836,0,0,0,2.5376.6455c1.04.0996,3.4844.333,4.9907-1.3906,1.9204-2.2071.584-4.6778-.1338-6.0049a6.60223,6.60223,0,0,1-.5581-1.1865,1.95924,1.95924,0,0,1,.4199-1.7119,2.03119,2.03119,0,0,1,1.6597-.712,6.01539,6.01539,0,0,1,2.4653,1.1924,10.7887,10.7887,0,0,0,3.6338,1.7569,14.01354,14.01354,0,0,0,7.6831-.794,23.62373,23.62373,0,0,1,2.293-.6367,59.94816,59.94816,0,0,1-46.1435,72.3965Z"/><path d="M108.2349,80.0537a1.97022,1.97022,0,0,0-.1275,2.8008c.2071.3809.229,2.5049-1.5439,5.626-1.8042,3.1709-3.8321,4.4668-4.3731,4.4726a2.00028,2.00028,0,0,0-.0664,4h.0669c3.065,0,6.1392-3.4883,7.8501-6.4961,1.8506-3.2578,3.2334-7.9023,1.0405-10.2695A2.028,2.028,0,0,0,108.2349,80.0537Z"/><path d="M42.1943,60.1963c-.6987,7.0957,1.604,11.7627,7.0391,14.2685l.5879.2725a20.246,20.246,0,0,0,6.4736,2.1465,5.90922,5.90922,0,0,1-.9453-4.2373,24.36092,24.36092,0,0,1-3.8423-1.5371l-.5986-.2774c-3.7988-1.7509-5.2588-4.9101-4.7339-10.2412A13.98466,13.98466,0,0,1,56.2856,48.9766a16.44268,16.44268,0,0,1,1.8189-.3516V44.6074a19.90847,19.90847,0,0,0-2.7998.4922A17.91263,17.91263,0,0,0,42.1943,60.1963Z"/><path d="M68.9316,73.541a2.00009,2.00009,0,0,0-2-2h-.8271V51.3252a3.75806,3.75806,0,0,1,2.7803-1.3623c1.6269,0,3.5117,1.1201,5.5073,2.3057,2.3725,1.4101,4.8252,2.8681,7.5508,2.8681a8.157,8.157,0,0,0,6.3095-3.2998,1.99931,1.99931,0,0,0,.4698-1.2871V36.5479a2.00012,2.00012,0,0,0-3.5303-1.2881c-1.4131,1.6797-2.5308,1.874-3.2485,1.874-1.627,0-3.5118-1.1201-5.5074-2.3057-2.3725-1.4092-4.8256-2.8672-7.5512-2.8672a8.16169,8.16169,0,0,0-6.3106,3.2989,2.00422,2.00422,0,0,0-.4697,1.2881V71.541h-.8272a2,2,0,0,0,0,4h5.6543A2.00009,2.00009,0,0,0,68.9316,73.541ZM66.1045,37.3193a3.743,3.743,0,0,1,2.7803-1.3584c1.6269,0,3.5122,1.1202,5.5078,2.3057,2.372,1.4102,4.8252,2.8672,7.5508,2.8672a7.0786,7.0786,0,0,0,2.7788-.5615v9.206a3.74489,3.74489,0,0,1-2.7793,1.3584c-1.6265,0-3.5117-1.1201-5.5069-2.3066-2.3725-1.4092-4.8256-2.8672-7.5512-2.8672a7.08612,7.08612,0,0,0-2.7803.5625Z"/><text x="0" y="143" fill="#000000" font-size="5px" font-weight="bold" font-family="'Helvetica Neue', Helvetica, Arial-Unicode, Arial, Sans-serif">Created by WEBTECHOPS LLP</text><text x="0" y="148" fill="#000000" font-size="5px" font-weight="bold" font-family="'Helvetica Neue', Helvetica, Arial-Unicode, Arial, Sans-serif">from the Noun Project</text></svg>